<?xml version="1.0" encoding="utf-8"?>
<!-- Generator: Adobe Illustrator 25.0.0, SVG Export Plug-In . SVG Version: 6.00 Build 0)  -->
<svg version="1.1" id="Ebene_1" xmlns="http://www.w3.org/2000/svg" xmlns:xlink="http://www.w3.org/1999/xlink" x="0px" y="0px"
	 viewBox="0 0 1118 1266" style="enable-background:new 0 0 1118 1266;" xml:space="preserve">
<style type="text/css">
	.st0{fill-rule:evenodd;clip-rule:evenodd;fill:#4A90E2;}
	.st1{fill:#FFFFFF;}
</style>
<g>
	<path class="st0" d="M328.9,294.3C315,433,301.8,565.5,287.5,708C475.9,583.1,656.2,463.6,840,341.7C646.8,225.9,458.4,112.9,270,0
		c93.4,156,181,319.6,274.4,475.6C476.9,414.1,400.9,360,328.9,294.3z"/>
	<path class="st1" d="M149.6,1147.7H44.5v78.8h122.9v35.5H0v-255.9h166.1v35.9H44.5v70.7h105.1V1147.7z M351.1,1153.5H248V1262
		h-44.5v-255.9h162.6v35.9H248v76.1h103V1153.5L351.1,1153.5z M548.8,1153.5h-103V1262h-44.5v-255.9h162.6v35.9H445.8v76.1h103
		V1153.5L548.8,1153.5z M646,1262h-44.3v-255.9H646V1262z M742.5,1226.5h136.8v35.5H688.7v-28.8l132.4-191.3H689.6v-35.9h185.5v28.1
		L742.5,1226.5L742.5,1226.5z M1117.1,1140.7c0,25.1-4.3,47.1-13,66s-21.1,33.5-37.2,43.6c-16.1,10.1-34.7,15.2-55.6,15.2
		c-20.7,0-39.2-5.1-55.5-15.2c-16.2-10.1-28.8-24.6-37.6-43.3c-8.8-18.8-13.3-40.4-13.4-64.9v-14.4c0-25,4.4-47,13.3-66.1
		c8.8-19.1,21.3-33.7,37.4-43.9c16.1-10.1,34.6-15.2,55.5-15.2c20.9,0,39.3,5,55.5,15c16.1,10,28.6,24.4,37.4,43.2
		c8.8,18.8,13.2,40.7,13.4,65.7V1140.7L1117.1,1140.7z M1072.6,1127.4c0-28.4-5.4-50.1-16.1-65.2c-10.7-15.1-25.9-22.7-45.6-22.7
		c-19.2,0-34.2,7.5-45.1,22.6c-10.8,15.1-16.4,36.4-16.6,63.9v14.8c0,28.1,5.5,49.9,16.4,65.2c11,15.4,26.2,23,45.6,23
		c19.7,0,34.8-7.5,45.4-22.5c10.6-15,15.9-36.9,15.9-65.7L1072.6,1127.4L1072.6,1127.4z"/>
</g>
</svg>
