<?xml version="1.0" encoding="utf-8"?>
<!-- Generator: Adobe Illustrator 25.0.0, SVG Export Plug-In . SVG Version: 6.00 Build 0)  -->
<svg version="1.1" id="Capa_1" xmlns="http://www.w3.org/2000/svg" xmlns:xlink="http://www.w3.org/1999/xlink" x="0px" y="0px"
	 viewBox="0 0 426.7 426.7" style="enable-background:new 0 0 426.7 426.7;" xml:space="preserve">
<style type="text/css">
	.st0{fill:#6EAACE;}
</style>
<g>
	<g>
		<g>
			<path class="st0" d="M213.3,106.7c-58.9,0-106.7,47.8-106.7,106.7S154.5,320,213.3,320S320,272.2,320,213.3
				S272.2,106.7,213.3,106.7z"/>
			<path class="st0" d="M213.3,0C95.5,0,0,95.5,0,213.3s95.5,213.3,213.3,213.3s213.3-95.5,213.3-213.3S331.2,0,213.3,0z M213.3,384
				C119,384,42.7,307.6,42.7,213.3S119,42.7,213.3,42.7S384,119,384,213.3S307.6,384,213.3,384z"/>
		</g>
	</g>
</g>
</svg>
