<?xml version="1.0" encoding="utf-8"?>
<!-- Generator: Adobe Illustrator 25.0.0, SVG Export Plug-In . SVG Version: 6.00 Build 0)  -->
<svg version="1.1" id="Capa_1" xmlns="http://www.w3.org/2000/svg" xmlns:xlink="http://www.w3.org/1999/xlink" x="0px" y="0px"
	 viewBox="0 0 480 480" style="enable-background:new 0 0 480 480;" xml:space="preserve">
<style type="text/css">
	.st0{fill:#FFFFFF;}
</style>
<g>
	<g>
		<path class="st0" d="M415.9,88c0-2.1-0.8-4.1-2.3-5.7l-80-80c-1.5-1.5-3.5-2.3-5.7-2.3V0H88C74.7,0,64,10.7,64,24v432
			c0,13.3,10.7,24,24,24h304c13.3,0,24-10.7,24-24L415.9,88L415.9,88z M336,27.3L388.7,80H344c-4.4,0-8-3.6-8-8V27.3z M400,456
			c0,4.4-3.6,8-8,8H88c-4.4,0-8-3.6-8-8V24c0-4.4,3.6-8,8-8h232v56c0,13.3,10.7,24,24,24h56V456z"/>
	</g>
</g>
<g>
	<g>
		<path class="st0" d="M144,216c-13.3,0-24,10.7-24,24s10.7,24,24,24s24-10.7,24-24S157.3,216,144,216z M144,248c-4.4,0-8-3.6-8-8
			s3.6-8,8-8s8,3.6,8,8S148.4,248,144,248z"/>
	</g>
</g>
<g>
	<g>
		<rect x="200" y="232" class="st0" width="160" height="16"/>
	</g>
</g>
<g>
	<g>
		<path class="st0" d="M144,136c-13.3,0-24,10.7-24,24s10.7,24,24,24s24-10.7,24-24S157.3,136,144,136z M144,168c-4.4,0-8-3.6-8-8
			s3.6-8,8-8s8,3.6,8,8S148.4,168,144,168z"/>
	</g>
</g>
<g>
	<g>
		<rect x="200" y="152" class="st0" width="160" height="16"/>
	</g>
</g>
<g>
	<g>
		<path class="st0" d="M144,296c-13.3,0-24,10.7-24,24s10.7,24,24,24s24-10.7,24-24S157.3,296,144,296z M144,328c-4.4,0-8-3.6-8-8
			s3.6-8,8-8s8,3.6,8,8S148.4,328,144,328z"/>
	</g>
</g>
<g>
	<g>
		<rect x="200" y="312" class="st0" width="160" height="16"/>
	</g>
</g>
<g>
	<g>
		<path class="st0" d="M144,376c-13.3,0-24,10.7-24,24s10.7,24,24,24s24-10.7,24-24S157.3,376,144,376z M144,408c-4.4,0-8-3.6-8-8
			s3.6-8,8-8s8,3.6,8,8S148.4,408,144,408z"/>
	</g>
</g>
<g>
	<g>
		<rect x="200" y="392" class="st0" width="160" height="16"/>
	</g>
</g>
</svg>
