<?xml version="1.0" encoding="utf-8"?>
<!-- Generator: Adobe Illustrator 25.0.0, SVG Export Plug-In . SVG Version: 6.00 Build 0)  -->
<svg version="1.1" id="Capa_1" xmlns="http://www.w3.org/2000/svg" xmlns:xlink="http://www.w3.org/1999/xlink" x="0px" y="0px"
	 viewBox="0 0 60 60" style="enable-background:new 0 0 60 60;" xml:space="preserve">
<style type="text/css">
	.st0{fill:#FFFFFF;}
</style>
<g>
	<path class="st0" d="M31.6,38c1-0.1,2-0.6,2.6-1.5l9.4-12.9c0.3-0.4,0.2-0.9-0.1-1.3c-0.3-0.3-0.9-0.4-1.3-0.1l-12.9,9.4
		c-0.8,0.6-1.4,1.6-1.5,2.6s0.3,2.1,1,2.8c0.7,0.7,1.6,1,2.5,1C31.4,38,31.5,38,31.6,38z M29.8,34.3c0-0.5,0.3-0.9,0.6-1.1l7.9-5.7
		l-5.7,7.9c-0.3,0.4-0.7,0.6-1.1,0.6c-0.5,0-0.9-0.1-1.2-0.5C29.9,35.2,29.8,34.8,29.8,34.3z"/>
	<path class="st0" d="M54,19.6C54,19.5,54,19.5,54,19.6c0-0.1-0.1-0.1-0.1-0.1c-1-1.7-2.2-3.3-3.6-4.8l2.1-2.1l1.4,1.4l4.2-4.2
		L54,5.4l-4.2,4.2l1.4,1.4L49,13.2c-1.5-1.4-3.1-2.6-4.8-3.6c0,0,0,0,0,0c0,0,0,0-0.1,0c-3.1-1.8-6.6-3-10.3-3.4V5h1.5
		c1.4,0,2.5-1.1,2.5-2.5S36.7,0,35.3,0h-9c-1.4,0-2.5,1.1-2.5,2.5S24.9,5,26.3,5h1.5v1.2c-1.1,0.1-2.2,0.3-3.2,0.5
		c-0.5,0.1-0.9,0.7-0.8,1.2c0.1,0.5,0.7,0.9,1.2,0.8c0.9-0.2,1.8-0.4,2.8-0.5l1.1-0.1c0.3,0,0.6,0,0.9-0.1v2c0,0.6,0.4,1,1,1
		s1-0.4,1-1V8c3.8,0.2,7.3,1.2,10.5,2.8l-1,1.7c-0.3,0.5-0.1,1.1,0.4,1.4c0.2,0.1,0.3,0.1,0.5,0.1c0.3,0,0.7-0.2,0.9-0.5l1-1.7
		c3.1,2,5.8,4.6,7.8,7.8l-1.7,1c-0.5,0.3-0.6,0.9-0.4,1.4c0.2,0.3,0.5,0.5,0.9,0.5c0.2,0,0.3,0,0.5-0.1l1.7-1
		c1.7,3.2,2.7,6.8,2.8,10.6h-2c-0.6,0-1,0.4-1,1s0.4,1,1,1h2c-0.2,3.8-1.2,7.4-2.8,10.6l-1.7-1c-0.5-0.3-1.1-0.1-1.4,0.4
		c-0.3,0.5-0.1,1.1,0.4,1.4l1.7,1c-2,3.1-4.6,5.8-7.8,7.8l-1-1.7c-0.3-0.5-0.9-0.6-1.4-0.4c-0.5,0.3-0.6,0.9-0.4,1.4l1,1.7
		c-3.2,1.7-6.7,2.7-10.5,2.8v-2c0-0.6-0.4-1-1-1s-1,0.4-1,1v2c-1.6-0.1-3.2-0.3-4.8-0.6c-0.5-0.1-1.1,0.2-1.2,0.8
		c-0.1,0.5,0.2,1.1,0.8,1.2c2,0.5,4,0.7,6.1,0.7c0,0,0.1,0,0.1,0c0,0,0,0,0,0c0,0,0,0,0,0c4.8,0,9.3-1.3,13.2-3.6c0,0,0.1,0,0.1,0
		c0,0,0,0,0,0c4-2.4,7.4-5.7,9.8-9.8c0,0,0,0,0.1-0.1c0,0,0,0,0-0.1c2.3-4,3.6-8.5,3.6-13.4S56.3,23.5,54,19.6z M54,8.3l1.4,1.4
		L54,11.1l-1.4-1.4L54,8.3z M29.8,6V3h-3.5c-0.3,0-0.5-0.2-0.5-0.5S26,2,26.3,2h9c0.3,0,0.5,0.2,0.5,0.5S35.6,3,35.3,3h-3.5v3
		c-0.3,0-0.7,0-1,0c0,0-0.1,0-0.1,0c0,0,0,0-0.1,0c-0.2,0-0.3,0-0.5,0C30,6,29.9,6,29.8,6z"/>
	<path class="st0" d="M21.8,14h-5c-0.6,0-1,0.4-1,1s0.4,1,1,1h5c0.6,0,1-0.4,1-1S22.3,14,21.8,14z"/>
	<path class="st0" d="M21.8,21h-10c-0.6,0-1,0.4-1,1s0.4,1,1,1h10c0.6,0,1-0.4,1-1S22.3,21,21.8,21z"/>
	<path class="st0" d="M21.8,28h-15c-0.6,0-1,0.4-1,1s0.4,1,1,1h15c0.6,0,1-0.4,1-1S22.3,28,21.8,28z"/>
	<path class="st0" d="M21.8,35h-19c-0.6,0-1,0.4-1,1s0.4,1,1,1h19c0.6,0,1-0.4,1-1S22.3,35,21.8,35z"/>
	<path class="st0" d="M21.8,42h-13c-0.6,0-1,0.4-1,1s0.4,1,1,1h13c0.6,0,1-0.4,1-1S22.3,42,21.8,42z"/>
	<path class="st0" d="M21.8,49h-7c-0.6,0-1,0.4-1,1s0.4,1,1,1h7c0.6,0,1-0.4,1-1S22.3,49,21.8,49z"/>
</g>
</svg>
